# Blender 4.2.2 LTS
# www.blender.org
o Block_Condo.019_Condo_Cube.010
v -4.050000 -5.399998 0.270001
v -4.050000 5.400004 0.000002
v -4.050000 -5.399998 0.000001
v -4.050000 5.400004 0.270002
v 4.050000 5.400004 0.000002
v 4.050000 5.400004 0.270002
v 4.050000 -5.399998 0.000001
v 4.050000 -5.399998 0.270001
v -1.085193 -5.202755 0.270001
v -0.620933 -5.202755 3.189989
v -1.085193 -5.202755 3.189989
v -3.309185 0.234172 6.930953
v -2.803032 0.234172 3.189990
v -2.803032 0.234172 6.954184
v 3.947336 -1.402641 6.954184
v 3.947336 -1.402640 0.270001
v 3.947338 -0.013944 4.034196
v -1.085193 -4.676256 3.189989
v -0.620923 -4.676256 6.954183
v -1.085193 -4.676256 6.954183
v -3.913259 -4.676252 0.270001
v -3.309185 0.234172 3.189990
v -2.705112 5.144598 0.270002
v 3.947336 -5.202755 0.270001
v 0.881462 -5.202756 6.954183
v 0.881462 -5.202755 0.270001
v -0.620923 -4.676256 3.189989
v -2.705112 5.144598 6.930954
v -2.184406 5.144598 6.954185
v -3.421659 -4.676253 3.189989
v 0.881462 -4.676256 6.954183
v 3.947336 -5.202756 6.954183
v 3.947336 -4.676259 6.954183
v -3.421659 -4.676255 20.114019
v -3.421659 -4.676253 6.954183
v 3.947336 -0.013944 6.954184
v 3.947336 -1.402643 20.114021
v 2.881458 1.870980 6.954184
v 2.881458 -0.013943 20.114021
v 2.881458 -0.013942 6.954184
v -1.085193 -4.676258 20.114019
v 2.881458 4.990943 6.954185
v 2.881458 1.870978 20.114021
v 3.947336 -4.676260 22.512861
v 3.947336 -4.676260 20.114021
v 1.607249 4.613019 6.954185
v 2.881458 4.990942 20.114021
v -0.620923 -4.676258 20.114019
v -3.900050 -5.202755 3.189989
v -3.900050 -5.202755 0.270001
v -3.913259 -4.676253 3.189989
v 2.881458 1.870980 4.034196
v 2.881458 4.990943 4.034196
v 2.881458 -0.013941 4.034196
v 3.947336 -1.402643 22.512861
v 3.247097 -3.923687 22.512861
v 0.380610 3.681047 22.512861
v 1.607249 3.681044 23.804453
v 1.607249 3.681044 22.512861
v 2.881458 -0.013943 22.512861
v 3.247097 -0.013944 23.804453
v 3.247097 -0.013943 22.512861
v 0.881462 -3.923687 22.512861
v -0.620923 -3.923687 23.804453
v -0.620923 -3.923687 22.512861
v 2.881458 3.250842 22.512861
v 2.881458 1.870978 23.804453
v 2.881458 1.870978 22.512861
v 3.947336 -0.013946 22.512861
v 3.247097 -1.402643 22.512861
v -3.009242 -1.402639 20.114017
v -3.009242 -1.402638 6.954184
v 0.881462 -4.676258 20.114021
v 0.696164 4.618606 20.114019
v 0.696164 4.618608 6.954185
v 1.607249 4.613017 20.114021
v 0.380610 3.250842 22.512861
v 0.380610 3.681047 23.804453
v 3.947338 1.870980 4.034196
v 3.947338 4.990943 4.034196
v 2.881458 4.990943 0.270002
v 3.947336 1.870981 0.270001
v 3.947336 -0.013944 0.270001
v 3.947338 4.990943 0.270002
v -2.705112 5.144598 3.189990
v -2.184406 5.144598 0.270002
v -2.184406 5.144598 4.034196
v -3.009240 -1.402629 3.189989
v -2.803032 0.234170 20.114014
v 3.247097 -1.402643 23.804453
v -1.187428 3.250840 22.512861
v 0.380610 3.250842 23.804453
v 1.607249 3.250842 22.512861
v 2.881458 3.250842 23.804453
v 3.247097 -3.923687 23.804453
v -2.049225 -1.402640 22.512861
v -1.187428 3.250840 23.804453
v -3.421659 -4.676255 22.512861
v -3.009242 -1.402640 24.537613
v -3.009242 -1.402640 22.512861
v 0.881462 -3.923687 23.804453
v -2.049225 -1.402640 23.804453
v -1.085193 -1.402640 24.537613
v -1.085193 -1.402640 23.804453
v -0.620923 -4.676258 22.512861
v 0.881462 -4.676258 22.512861
v -2.529234 -1.402640 22.512861
v -1.653859 4.136823 22.512861
v 0.696164 4.618606 22.512861
v -2.184406 5.144596 22.512861
v -0.460994 1.870978 23.804453
v 0.881462 -3.374369 23.804453
v 2.367928 1.870978 23.804453
v -0.620923 -3.374367 23.804453
v 0.881462 -3.374369 24.537613
v -0.620923 -3.374367 24.537613
v 2.881458 -1.874320 23.804453
v 2.881458 -3.374372 24.537613
v 2.881458 -3.374372 23.804453
v 2.881458 -0.013944 23.804453
v 2.367930 -1.402643 23.804453
v -0.620923 -4.676258 24.537613
v -1.085193 -4.676258 22.512861
v 2.367930 -1.874320 23.804453
v 0.881465 1.870978 23.804453
v 1.607249 4.613017 22.512861
v 1.607249 3.250842 23.804453
v 0.881462 -1.402640 24.537613
v -1.085193 -4.676258 24.537613
v -1.085193 -1.402640 25.614368
v 2.367930 -1.874320 24.537613
v 2.367928 1.870978 24.537613
v 2.367930 -1.402643 25.614368
v 2.367930 -1.402643 24.537613
v 2.881458 -1.874320 24.537613
v -0.460994 1.870978 24.537613
v 0.881465 1.870978 24.537613
v 2.367930 0.234167 23.804453
v -3.421659 -4.676256 24.537613
v -0.460994 1.870977 25.614368
v 0.881462 -1.402640 25.614368
v 0.881465 1.870977 25.614368
v 2.367928 1.870977 25.614368
v -2.803032 0.234170 22.512861
v -2.184406 5.144596 20.114019
v 3.947336 -0.013946 20.114021
v 2.881458 4.990941 22.512861
v -0.620933 -5.202755 0.270001
v -0.620933 -5.202756 6.954183
vn -1.0000 -0.0000 -0.0000
vn -0.0000 1.0000 -0.0000
vn 1.0000 -0.0000 -0.0000
vn -0.0000 -1.0000 -0.0000
vn -0.0000 -0.0000 1.0000
vn -0.9925 0.1221 -0.0000
vn -0.0454 0.0056 0.9990
vn -0.0451 0.0056 0.9990
vn -0.0446 0.0056 0.9990
vn -0.2844 0.9587 -0.0000
vn -0.9997 -0.0251 -0.0000
vn -0.9922 0.1250 -0.0000
vn 0.1796 0.9837 -0.0000
vn 0.0061 1.0000 -0.0000
vn -0.9833 0.1821 -0.0000
vn -0.9823 0.1873 -0.0000
vn 0.0303 0.9995 -0.0000
vn -0.0459 0.0056 0.9989
vt 0.146800 0.882000
vt 0.006700 0.878500
vt 0.146800 0.878500
vt 0.006700 0.882000
vt 0.003200 0.987000
vt 0.003200 0.882000
vt 0.006700 0.987000
vt 0.146800 0.990500
vt 0.006700 0.990500
vt 0.146800 0.987000
vt 0.150300 0.882000
vt 0.150300 0.987000
vt 0.420300 0.507900
vt 0.426700 0.548200
vt 0.420300 0.548200
vt 0.310300 0.603300
vt 0.317200 0.552300
vt 0.317200 0.603600
vt 0.060700 0.599000
vt 0.060700 0.508500
vt 0.079500 0.559500
vt 0.455800 0.612700
vt 0.461900 0.662500
vt 0.455800 0.662500
vt 0.374200 0.508300
vt 0.306600 0.548200
vt 0.239100 0.508300
vt 0.489600 0.507900
vt 0.447400 0.600000
vt 0.447400 0.507900
vt 0.419500 0.551700
vt 0.412600 0.601700
vt 0.412600 0.551700
vt 0.239100 0.606200
vt 0.305300 0.612900
vt 0.238300 0.613200
vt 0.388000 0.559600
vt 0.391200 0.590800
vt 0.384400 0.589900
vt 0.447400 0.609700
vt 0.489800 0.602400
vt 0.489800 0.609700
vt 0.426600 0.609700
vt 0.447400 0.602400
vt 0.424900 0.836600
vt 0.424900 0.662500
vt 0.146600 0.662500
vt 0.128200 0.836800
vt 0.128200 0.662500
vt 0.186000 0.662900
vt 0.161100 0.836700
vt 0.161100 0.662900
vt 0.455800 0.836600
vt 0.227200 0.662900
vt 0.186000 0.836700
vt 0.084800 0.868500
vt 0.084800 0.836800
vt 0.244100 0.662900
vt 0.227200 0.836700
vt 0.044200 0.662500
vt 0.024300 0.836800
vt 0.024300 0.662500
vt 0.390500 0.596800
vt 0.084800 0.662500
vt 0.381500 0.548200
vt 0.381500 0.507900
vt 0.381300 0.508300
vt 0.374200 0.548200
vt 0.156400 0.609600
vt 0.114100 0.569900
vt 0.156400 0.569900
vt 0.395600 0.554200
vt 0.388800 0.553200
vt 0.048000 0.635900
vt 0.008800 0.621600
vt 0.048000 0.621600
vt 0.254100 0.989100
vt 0.286100 0.980200
vt 0.295700 0.989100
vt 0.490300 0.916200
vt 0.474900 0.901600
vt 0.490300 0.901600
vt 0.490300 0.842300
vt 0.474900 0.837900
vt 0.490300 0.837900
vt 0.490300 0.763000
vt 0.474900 0.745000
vt 0.490300 0.745000
vt 0.490300 0.881200
vt 0.474900 0.864800
vt 0.490300 0.864800
vt 0.236500 0.989100
vt 0.254100 0.980200
vt 0.381200 0.836600
vt 0.381200 0.662500
vt 0.044200 0.836800
vt 0.294100 0.662900
vt 0.256200 0.836700
vt 0.256200 0.662900
vt 0.244100 0.836700
vt 0.490300 0.921400
vt 0.474900 0.916200
vt 0.116000 0.636000
vt 0.073700 0.621500
vt 0.116000 0.621500
vt 0.148000 0.559500
vt 0.162500 0.508100
vt 0.162500 0.559500
vt 0.105000 0.508500
vt 0.079500 0.508500
vt 0.105000 0.559500
vt 0.147200 0.508500
vt 0.147200 0.559500
vt 0.048100 0.636000
vt 0.048100 0.621500
vt 0.239100 0.548100
vt 0.232000 0.508100
vt 0.239100 0.508100
vt 0.306600 0.599300
vt 0.239100 0.548200
vt 0.232000 0.559700
vt 0.239100 0.599400
vt 0.232000 0.599700
vt 0.424900 0.612700
vt 0.381200 0.612700
vt 0.114100 0.609600
vt 0.088500 0.569900
vt 0.009200 0.599000
vt 0.009200 0.508500
vt 0.016400 0.599000
vt 0.359400 0.836700
vt 0.294000 0.662800
vt 0.359400 0.662800
vt 0.474900 0.821300
vt 0.490300 0.821300
vt 0.490300 0.940100
vt 0.474900 0.921400
vt 0.490300 0.896500
vt 0.474900 0.881200
vt 0.474900 0.791200
vt 0.490300 0.791200
vt 0.490300 0.996600
vt 0.474900 0.940100
vt 0.424900 0.868400
vt 0.381200 0.895200
vt 0.381200 0.868400
vt 0.474900 0.763000
vt 0.368500 0.885500
vt 0.355700 0.895200
vt 0.355700 0.885500
vt 0.286100 0.950200
vt 0.295700 0.931100
vt 0.295700 0.950200
vt 0.180600 0.902500
vt 0.240500 0.885200
vt 0.240500 0.891400
vt 0.169100 0.896500
vt 0.162900 0.926700
vt 0.156200 0.889600
vt 0.208100 0.924900
vt 0.249500 0.904900
vt 0.249400 0.917000
vt 0.180600 0.938400
vt 0.180600 0.954900
vt 0.175000 0.938400
vt 0.274300 0.941900
vt 0.281300 0.922900
vt 0.281300 0.941900
vt 0.208000 0.967100
vt 0.190600 0.967100
vt 0.208100 0.960600
vt 0.356100 0.902200
vt 0.375300 0.911600
vt 0.356100 0.911600
vt 0.420000 0.902200
vt 0.400900 0.911600
vt 0.400900 0.902200
vt 0.249400 0.971800
vt 0.231900 0.967100
vt 0.249400 0.960700
vt 0.461900 0.895200
vt 0.455800 0.868400
vt 0.461900 0.868400
vt 0.274300 0.967200
vt 0.255400 0.967200
vt 0.255400 0.960700
vt 0.208100 0.941900
vt 0.190600 0.935500
vt 0.474900 0.842300
vt 0.163000 0.938400
vt 0.349100 0.902200
vt 0.474900 0.896500
vt 0.352700 0.943100
vt 0.333700 0.918000
vt 0.352700 0.918000
vt 0.303300 0.943100
vt 0.327800 0.901500
vt 0.327800 0.943100
vt 0.319800 0.985700
vt 0.344700 0.972100
vt 0.344700 0.985700
vt 0.378100 0.918000
vt 0.371600 0.937100
vt 0.422700 0.985800
vt 0.464100 0.972100
vt 0.464100 0.985800
vt 0.403900 0.995000
vt 0.422700 0.995000
vt 0.426600 0.902200
vt 0.420000 0.911600
vt 0.344700 0.995000
vt 0.386900 0.985700
vt 0.386900 0.995000
vt 0.432600 0.902200
vt 0.426600 0.911600
vt 0.403900 0.985700
vt 0.464100 0.995000
vt 0.443400 0.995000
vt 0.375300 0.902200
vt 0.424900 0.895200
vt 0.175000 0.922700
vt 0.228700 0.960700
vt 0.190600 0.915700
vt 0.185200 0.951000
vt 0.185200 0.935500
vt 0.333700 0.901500
vt 0.422700 0.936400
vt 0.464000 0.953300
vt 0.422700 0.953300
vt 0.422700 0.972100
vt 0.464000 0.972100
vt 0.301000 0.985700
vt 0.319800 0.972100
vt 0.403900 0.972100
vt 0.386900 0.972100
vt 0.381200 0.836700
vt 0.359400 0.868400
vt 0.294100 0.836700
vt 0.256200 0.868400
vt 0.155800 0.868500
vt 0.160700 0.836800
vt 0.160700 0.868500
vt 0.146600 0.836800
vt 0.128200 0.868500
vt 0.461900 0.836600
vt 0.024300 0.868500
vt 0.044200 0.868500
vt 0.244100 0.868400
vt 0.161100 0.868400
vt 0.204200 0.868400
vt 0.227200 0.868400
vt 0.294000 0.836700
vt 0.294000 0.868400
vt 0.426700 0.507900
vt 0.426700 0.600000
vt 0.190600 0.951000
vt 0.219400 0.881700
vt 0.240500 0.879000
vt 0.158200 0.954900
vt 0.339500 0.885700
vt 0.339500 0.911600
vt 0.162500 0.559700
vt 0.162500 0.606000
vt 0.192100 0.612000
vt 0.179700 0.611700
vt 0.160700 0.662500
vt 0.146600 0.868500
vt 0.381200 0.662800
vt 0.381200 0.613100
vt 0.359400 0.613100
vt 0.324000 0.553400
vt 0.344800 0.559800
vt 0.323200 0.559900
vt 0.374800 0.868300
vt 0.368500 0.868400
vt 0.310300 0.552300
vt 0.079500 0.599000
vt 0.461900 0.612700
vt 0.489600 0.600000
vt 0.419500 0.601700
vt 0.306200 0.606100
vt 0.426600 0.602400
vt 0.383600 0.596000
vt 0.381300 0.548200
vt 0.008800 0.635900
vt 0.236500 0.980200
vt 0.073700 0.636000
vt 0.148000 0.508100
vt 0.239100 0.599300
vt 0.088500 0.609600
vt 0.474900 0.996600
vt 0.286100 0.931100
vt 0.274400 0.922900
vt 0.231900 0.971800
vt 0.455800 0.895200
vt 0.281300 0.971800
vt 0.298100 0.901500
vt 0.378100 0.937100
vt 0.432600 0.911600
vt 0.180600 0.922700
vt 0.464000 0.928500
vt 0.301000 0.972100
vt 0.294100 0.868400
vt 0.186000 0.868400
vt 0.371600 0.943100
vt 0.349100 0.885700
vt 0.162500 0.599700
vt 0.231700 0.606000
s 1
f 1/1/1 2/2/1 3/3/1
f 4/4/2 5/5/2 2/6/2
f 6/7/3 7/8/3 5/9/3
f 8/10/4 3/11/4 7/12/4
f 4/4/5 8/10/5 6/7/5
f 9/13/4 10/14/4 11/15/4
f 12/16/4 13/17/4 14/18/4
f 15/19/3 16/20/3 17/21/3
f 18/22/4 19/23/4 20/24/4
f 21/25/6 22/26/6 23/27/6
f 24/28/4 25/29/4 26/30/4
f 10/31/1 19/32/1 27/33/1
f 28/34/7 14/35/8 29/36/9
f 30/37/5 11/38/5 18/39/5
f 31/40/5 32/41/5 33/42/5
f 19/43/5 25/44/5 31/40/5
f 20/24/4 34/45/4 35/46/4
f 36/47/3 37/48/3 15/49/3
f 38/50/3 39/51/3 40/52/3
f 19/23/4 41/53/4 20/24/4
f 42/54/3 43/55/3 38/50/3
f 37/48/3 44/56/3 45/57/3
f 46/58/10 47/59/10 42/54/10
f 31/60/4 48/61/4 19/62/4
f 10/63/5 18/39/5 11/38/5
f 15/49/3 45/57/3 33/64/3
f 9/13/4 49/65/4 50/66/4
f 50/67/11 51/68/11 21/25/11
f 42/69/3 52/70/3 53/71/3
f 49/72/5 30/37/5 51/73/5
f 54/74/2 36/75/2 17/76/2
f 55/77/5 56/78/5 44/79/5
f 57/80/2 58/81/2 59/82/2
f 60/83/2 61/84/2 62/85/2
f 63/86/4 64/87/4 65/88/4
f 66/89/3 67/90/3 68/91/3
f 69/92/5 70/93/5 55/77/5
f 35/46/12 71/94/12 72/95/12
f 33/64/4 73/96/4 31/60/4
f 29/97/13 74/98/13 75/99/13
f 46/58/14 74/98/14 76/100/14
f 77/101/1 78/102/1 57/80/1
f 53/103/5 79/104/5 80/105/5
f 80/106/2 81/107/2 53/108/2
f 82/109/3 17/21/3 83/110/3
f 79/111/3 84/112/3 80/113/3
f 79/104/5 54/114/5 17/115/5
f 85/116/2 86/117/2 23/118/2
f 12/119/6 85/120/6 22/26/6
f 87/121/2 28/122/2 29/123/2
f 30/124/12 72/95/12 88/125/12
f 30/124/4 20/24/4 35/46/4
f 38/126/3 54/127/3 52/70/3
f 32/128/3 24/129/3 33/130/3
f 89/131/12 29/132/12 14/133/12
f 62/85/3 90/134/3 70/135/3
f 91/136/2 92/137/2 77/101/2
f 93/138/2 94/139/2 66/89/2
f 70/135/3 95/140/3 56/141/3
f 96/142/15 97/143/15 91/136/15
f 98/144/12 99/145/12 100/146/12
f 56/141/4 101/147/4 63/86/4
f 102/148/2 103/149/2 104/150/2
f 63/151/5 105/152/5 106/153/5
f 91/154/5 107/155/5 96/156/5
f 108/157/5 109/158/5 110/159/5
f 111/160/5 102/161/5 104/162/5
f 93/163/5 66/164/5 59/165/5
f 112/166/5 64/167/5 101/168/5
f 67/169/5 94/170/5 113/171/5
f 114/172/4 115/173/4 116/174/4
f 117/175/3 118/176/3 119/177/3
f 90/178/5 120/179/5 121/180/5
f 122/181/4 123/182/4 105/183/4
f 101/168/5 119/184/5 112/166/5
f 117/185/5 121/180/5 124/186/5
f 125/187/5 92/188/5 111/160/5
f 68/91/3 120/189/3 60/83/3
f 109/158/5 59/165/5 126/190/5
f 116/174/3 64/191/3 114/172/3
f 59/82/3 127/192/3 93/138/3
f 128/193/5 116/194/5 115/195/5
f 99/196/5 129/197/5 103/198/5
f 128/199/4 130/200/4 103/201/4
f 118/202/5 131/203/5 115/195/5
f 132/204/3 133/205/3 134/206/3
f 125/207/2 132/204/2 113/208/2
f 124/209/2 135/210/2 117/175/2
f 104/211/16 136/212/16 111/213/16
f 121/214/3 131/215/3 124/209/3
f 111/213/2 137/216/2 125/207/2
f 121/217/3 138/218/3 134/206/3
f 119/177/4 115/173/4 112/219/4
f 123/182/4 139/220/4 98/144/4
f 91/154/5 57/221/5 108/157/5
f 138/222/5 67/169/5 113/171/5
f 111/160/5 92/188/5 97/223/5
f 92/188/5 58/224/5 78/225/5
f 116/194/5 129/197/5 122/226/5
f 140/227/5 141/228/5 142/229/5
f 143/230/5 141/228/5 133/231/5
f 134/232/4 141/233/4 128/199/4
f 136/212/2 142/234/2 137/216/2
f 137/216/2 143/230/2 132/204/2
f 103/201/16 140/235/16 136/212/16
f 71/236/12 144/237/12 89/131/12
f 145/238/13 109/239/13 74/98/13
f 62/240/2 39/241/2 60/242/2
f 146/243/3 55/244/3 37/48/3
f 48/245/4 123/182/4 41/53/4
f 16/20/3 33/130/3 24/129/3
f 73/96/4 105/246/4 48/61/4
f 45/57/4 106/247/4 73/96/4
f 76/100/14 109/239/14 126/248/14
f 41/53/4 98/144/4 34/45/4
f 43/55/3 60/249/3 39/51/3
f 47/59/3 66/250/3 43/55/3
f 76/100/10 147/251/10 47/59/10
f 145/252/12 144/237/12 110/253/12
f 148/254/4 26/30/4 10/14/4
f 149/255/4 10/14/4 25/29/4
f 25/29/4 10/14/4 26/30/4
f 92/188/5 125/187/5 127/256/5
f 102/161/5 111/160/5 97/223/5
f 107/155/5 144/257/5 100/258/5
f 144/257/5 107/155/5 108/157/5
f 120/179/5 138/222/5 121/180/5
f 59/165/5 147/259/5 126/190/5
f 131/203/5 128/193/5 115/195/5
f 119/184/5 90/178/5 117/185/5
f 56/78/5 106/153/5 44/79/5
f 105/260/3 64/191/3 122/261/3
f 81/107/17 87/121/17 53/262/17
f 29/123/17 53/262/17 87/121/17
f 42/263/5 75/264/5 46/265/5
f 108/157/5 110/159/5 144/257/5
f 102/148/2 100/146/2 99/145/2
f 146/243/2 40/266/2 39/241/2
f 113/171/5 127/256/5 125/187/5
f 132/204/3 138/218/3 113/208/3
f 134/206/3 138/218/3 132/204/3
f 127/256/5 113/171/5 94/170/5
f 146/243/2 62/240/2 69/267/2
f 100/146/12 34/45/12 98/144/12
f 72/268/12 89/131/12 14/133/12
f 88/269/12 14/133/12 13/270/12
f 22/271/5 88/272/5 13/273/5
f 88/272/5 22/271/5 51/73/5
f 51/73/5 30/37/5 88/272/5
f 107/274/2 102/148/2 96/275/2
f 1/1/1 4/4/1 2/2/1
f 4/4/2 6/7/2 5/5/2
f 6/7/3 8/10/3 7/8/3
f 8/10/4 1/1/4 3/11/4
f 4/4/5 1/1/5 8/10/5
f 9/13/4 148/254/4 10/14/4
f 12/16/4 22/276/4 13/17/4
f 83/110/3 17/21/3 16/20/3
f 36/277/3 15/19/3 17/21/3
f 18/22/4 27/278/4 19/23/4
f 85/120/6 23/27/6 22/26/6
f 21/25/6 51/68/6 22/26/6
f 24/28/4 32/279/4 25/29/4
f 10/31/1 149/280/1 19/32/1
f 28/34/7 12/281/18 14/35/8
f 30/37/5 49/72/5 11/38/5
f 31/40/5 25/44/5 32/41/5
f 19/43/5 149/282/5 25/44/5
f 20/24/4 41/53/4 34/45/4
f 36/47/3 146/243/3 37/48/3
f 38/50/3 43/55/3 39/51/3
f 19/23/4 48/245/4 41/53/4
f 42/54/3 47/59/3 43/55/3
f 37/48/3 55/244/3 44/56/3
f 46/58/10 76/100/10 47/59/10
f 31/60/4 73/96/4 48/61/4
f 10/63/5 27/283/5 18/39/5
f 15/49/3 37/48/3 45/57/3
f 9/13/4 11/15/4 49/65/4
f 50/67/11 49/284/11 51/68/11
f 42/69/3 38/126/3 52/70/3
f 54/74/2 40/285/2 36/75/2
f 55/77/5 70/93/5 56/78/5
f 57/80/2 78/102/2 58/81/2
f 60/83/2 120/189/2 61/84/2
f 63/86/4 101/147/4 64/87/4
f 66/89/3 94/139/3 67/90/3
f 69/92/5 62/286/5 70/93/5
f 35/46/12 34/45/12 71/94/12
f 33/64/4 45/57/4 73/96/4
f 29/97/13 145/238/13 74/98/13
f 46/58/14 75/99/14 74/98/14
f 77/101/1 92/137/1 78/102/1
f 53/103/5 52/287/5 79/104/5
f 80/106/2 84/288/2 81/107/2
f 82/109/3 79/111/3 17/21/3
f 79/111/3 82/109/3 84/112/3
f 79/104/5 52/287/5 54/114/5
f 85/116/2 87/121/2 86/117/2
f 12/119/6 28/289/6 85/120/6
f 87/121/2 85/116/2 28/122/2
f 30/124/12 35/46/12 72/95/12
f 30/124/4 18/22/4 20/24/4
f 38/126/3 40/290/3 54/127/3
f 89/131/12 145/252/12 29/132/12
f 62/85/3 61/84/3 90/134/3
f 91/136/2 97/143/2 92/137/2
f 93/138/2 127/192/2 94/139/2
f 70/135/3 90/134/3 95/140/3
f 96/142/15 102/291/15 97/143/15
f 98/144/12 139/220/12 99/145/12
f 56/141/4 95/140/4 101/147/4
f 102/148/2 99/145/2 103/149/2
f 63/151/5 65/292/5 105/152/5
f 91/154/5 108/157/5 107/155/5
f 108/157/5 57/221/5 109/158/5
f 112/166/5 114/293/5 64/167/5
f 114/172/4 112/219/4 115/173/4
f 117/175/3 135/210/3 118/176/3
f 90/178/5 61/294/5 120/179/5
f 122/181/4 129/295/4 123/182/4
f 101/168/5 95/296/5 119/184/5
f 117/185/5 90/178/5 121/180/5
f 68/91/3 67/90/3 120/189/3
f 109/158/5 57/221/5 59/165/5
f 116/174/3 122/261/3 64/191/3
f 59/82/3 58/81/3 127/192/3
f 128/193/5 103/198/5 116/194/5
f 99/196/5 139/297/5 129/197/5
f 128/199/4 141/233/4 130/200/4
f 118/202/5 135/298/5 131/203/5
f 132/204/3 143/230/3 133/205/3
f 125/207/2 137/216/2 132/204/2
f 124/209/2 131/215/2 135/210/2
f 104/211/16 103/201/16 136/212/16
f 121/214/3 134/299/3 131/215/3
f 111/213/2 136/212/2 137/216/2
f 119/177/4 118/176/4 115/173/4
f 123/182/4 129/295/4 139/220/4
f 91/154/5 77/300/5 57/221/5
f 138/222/5 120/179/5 67/169/5
f 92/188/5 127/256/5 58/224/5
f 116/194/5 103/198/5 129/197/5
f 140/227/5 130/301/5 141/228/5
f 143/230/5 142/229/5 141/228/5
f 134/232/4 133/302/4 141/233/4
f 136/212/2 140/235/2 142/234/2
f 137/216/2 142/234/2 143/230/2
f 103/201/16 130/200/16 140/235/16
f 71/236/12 100/146/12 144/237/12
f 145/238/13 110/303/13 109/239/13
f 146/243/3 69/267/3 55/244/3
f 48/245/4 105/183/4 123/182/4
f 16/20/3 15/19/3 33/130/3
f 73/96/4 106/247/4 105/246/4
f 45/57/4 44/56/4 106/247/4
f 76/100/14 74/98/14 109/239/14
f 41/53/4 123/182/4 98/144/4
f 43/55/3 68/304/3 60/249/3
f 68/304/3 43/55/3 66/250/3
f 47/59/3 147/251/3 66/250/3
f 76/100/10 126/248/10 147/251/10
f 145/252/12 89/131/12 144/237/12
f 59/165/5 66/164/5 147/259/5
f 131/203/5 134/305/5 128/193/5
f 119/184/5 95/296/5 90/178/5
f 56/78/5 63/151/5 106/153/5
f 105/260/3 65/306/3 64/191/3
f 81/107/17 86/117/17 87/121/17
f 29/123/17 42/307/17 53/262/17
f 42/263/5 29/308/5 75/264/5
f 102/148/2 107/274/2 100/146/2
f 146/243/2 36/47/2 40/266/2
f 146/243/2 39/241/2 62/240/2
f 100/146/12 71/94/12 34/45/12
f 72/268/12 71/236/12 89/131/12
f 88/269/12 72/268/12 14/133/12
